# xmcd
#
# Track frame offsets:
#	150
#	18265
#	34074
#	52659
#	69436
#	83027
#	100908
#	117511
#	131123
#	143714
#	159899
#	177108
#	194840
#	213216
#	228868
#	246244
#	266368
#	280473
#	308843
#
# Disc length: 4284 seconds
#
# Revision: 0
# Processed by: cddbd v1.5.2PL0 Copyright (c) Steve Scherf et al.
# Submitted via: dBpowerAMP V4.0
#
DISCID=0310ba13
DTITLE=Pedrinho Mendes - Esquina do continente
DYEAR=1986
DGENRE=Vocal
TTITLE0=Esquina do continente
TTITLE1=Raça
TTITLE2=Dá pra dizer sim 
TTITLE3=Linda Baby
TTITLE4=Uma vez
TTITLE5=Brilho de Uganda
TTITLE6=O sétimo sonho
TTITLE7=Pelos céus
TTITLE8=Alegres meninos
TTITLE9=Um Pedro a mais
TTITLE10=Sandra
TTITLE11=Eu não sou ninguém
TTITLE12=Baião de dois
TTITLE13=Negro professor
TTITLE14=De Natal ao Rio
TTITLE15=Simplesmente lindo
TTITLE16=Voz de Olinda
TTITLE17=Juntos
TTITLE18=Foi tolice
EXTD=
EXTT0=
EXTT1=
EXTT2=
EXTT3=
EXTT4=
EXTT5=
EXTT6=
EXTT7=
EXTT8=
EXTT9=
EXTT10=
EXTT11=
EXTT12=
EXTT13=
EXTT14=
EXTT15=
EXTT16=
EXTT17=
EXTT18=
PLAYORDER=
